PathFileType	4	(X/Y/Z)	intermediate\S1_nor_fast_left\tmpqolbj2xf.trc
DataRate	CameraRate	NumFrames	NumMarkers	Units	OrigDataRate	OrigDataStartFrame	OrigNumFrames
250.0	250.0	15	18	mm	250.0	1	3710
Frame#	Time	c7			r_should			l_should			clavicle			r_upa			r_elb_l			r_elb_m			r_low			r_wri_l			r_wri_m			r_met			l_upa			l_elb_l			l_elb_m			l_low			l_wri_l			l_wri_m			l_met			
		X	Y	Z	X	Y	Z	X	Y	Z	X	Y	Z	X	Y	Z	X	Y	Z	X	Y	Z	X	Y	Z	X	Y	Z	X	Y	Z	X	Y	Z	X	Y	Z	X	Y	Z	X	Y	Z	X	Y	Z	X	Y	Z	X	Y	Z	X	Y	Z	
1	0.000000	1003.662842	1420.837402	166.647430	1079.384888	1341.164551	333.103363	1030.447144	1364.516479	-34.470848	1129.424316	1290.439453	133.458588	1051.424927	1133.723267	377.651764	1062.596191	1032.070312	395.718384	1027.809082	1011.827454	300.322235	1017.527222	901.607605	391.423584	1100.713379	811.852234	409.001587	1031.412231	796.704163	388.603943	1120.135498	731.105286	440.815674	1012.090332	1139.912598	-69.527344	1013.141052	1054.216431	-80.141739	954.209473	1036.432251	3.467488	961.137146	914.277954	-84.209892	1032.486572	820.544128	-65.191109	960.944092	814.153809	-78.887833	1046.602417	742.800476	-86.413681	
2	0.004000	1003.632080	1420.864624	166.750870	1079.270874	1341.105347	333.246765	1030.505371	1364.567017	-34.342472	1129.396362	1290.433228	133.612030	1051.233521	1133.665161	377.769989	1062.375610	1032.004272	395.810425	1027.583740	1011.812805	300.423676	1017.311096	901.560852	391.520691	1100.529297	811.778015	408.898621	1031.173950	796.659607	388.751129	1120.068848	731.015991	440.585449	1012.116089	1139.959106	-69.440170	1013.153564	1054.263062	-80.063820	954.182373	1036.479248	3.522542	961.140320	914.329346	-84.163513	1032.479004	820.591125	-65.118690	960.941345	814.209961	-78.858856	1046.587524	742.850403	-86.336922	
3	0.008000	1003.598206	1420.892212	166.845200	1079.151855	1341.048218	333.385773	1030.557373	1364.605469	-34.205170	1129.366577	1290.426025	133.761078	1051.051147	1133.620972	377.889343	1062.166748	1031.935425	395.903015	1027.345947	1011.798645	300.546600	1017.100708	901.509338	391.614380	1100.339722	811.702087	408.800873	1030.927002	796.615112	388.902649	1120.003662	730.919617	440.355652	1012.139893	1140.002441	-69.354004	1013.165344	1054.314087	-79.984543	954.157776	1036.529785	3.575621	961.142761	914.386292	-84.114380	1032.460449	820.639160	-65.041519	960.942139	814.256287	-78.820305	1046.580688	742.895813	-86.247505	
4	0.012000	1003.571838	1420.861572	167.003403	1079.033569	1340.993896	333.528717	1030.608887	1364.641235	-34.069218	1129.334106	1290.410034	133.912170	1050.864014	1133.586792	378.009369	1061.970459	1031.860718	395.990906	1027.135986	1011.762390	300.649994	1016.891968	901.458130	391.707611	1100.147217	811.620972	408.709229	1030.683228	796.575928	389.049713	1119.923950	730.827698	440.123169	1012.163879	1140.048096	-69.257530	1013.172974	1054.363647	-79.904556	954.125610	1036.574707	3.616015	961.139038	914.443726	-84.069550	1032.441772	820.691040	-64.966698	960.938843	814.308472	-78.782356	1046.569580	742.945557	-86.162231	
5	0.016000	1003.533813	1420.876953	167.116806	1078.914429	1340.944824	333.678894	1030.661377	1364.680298	-33.930607	1129.311035	1290.399536	134.069717	1050.657715	1133.478149	378.142212	1061.947388	1031.857910	395.967651	1026.941528	1011.720886	300.735870	1016.682007	901.410706	391.801025	1099.960083	811.543457	408.619171	1030.453247	796.537781	389.189545	1119.838501	730.737732	439.902100	1012.189270	1140.100464	-69.160683	1013.179810	1054.412720	-79.825211	954.098938	1036.617310	3.652378	961.137756	914.500061	-84.026276	1032.425171	820.747742	-64.885452	960.935852	814.359375	-78.743774	1046.560425	742.997498	-86.079300	
6	0.020000	1003.499878	1420.908936	167.218643	1078.796753	1340.895386	333.829773	1030.713013	1364.723267	-33.787510	1129.291626	1290.393433	134.228027	1050.427002	1133.289185	378.280212	1062.133789	1031.951660	395.793945	1026.720337	1011.693970	300.849182	1016.473145	901.366516	391.897949	1099.773682	811.468628	408.539459	1030.225708	796.505188	389.328339	1119.760010	730.650208	439.691772	1012.215637	1140.149414	-69.065796	1013.190247	1054.466431	-79.745285	954.065002	1036.669312	3.691509	961.135376	914.557373	-83.983353	1032.412231	820.802917	-64.806702	960.940552	814.416077	-78.705254	1046.555542	743.045776	-86.004227	
7	0.024000	1003.478638	1420.884277	167.381927	1078.676025	1340.847168	333.987885	1030.765747	1364.770630	-33.646889	1129.271118	1290.391479	134.384155	1050.228516	1133.192871	378.398712	1062.062256	1031.938232	395.807343	1026.482300	1011.682373	300.995911	1016.271118	901.327820	391.996948	1099.593872	811.398621	408.474670	1029.999023	796.477722	389.464172	1119.678711	730.562134	439.485474	1012.238770	1140.200562	-68.970192	1013.206238	1054.519165	-79.659225	954.027771	1036.721191	3.733318	961.131897	914.619019	-83.933983	1032.400391	820.858459	-64.727524	960.941772	814.477966	-78.673302	1046.548340	743.088684	-85.920174	
8	0.028000	1003.448364	1420.902832	167.502609	1078.551880	1340.800049	334.144135	1030.814209	1364.819092	-33.503365	1129.257202	1290.388428	134.549438	1050.045044	1133.137573	378.532104	1061.924438	1031.906494	395.878571	1026.273193	1011.651978	301.135559	1016.073242	901.290771	392.102234	1099.419556	811.329712	408.423309	1029.783081	796.451660	389.604187	1119.584717	730.474121	439.299255	1012.258911	1140.255249	-68.874359	1013.223022	1054.563721	-79.557465	954.004395	1036.762085	3.779541	961.132324	914.682556	-83.881752	1032.388428	820.911682	-64.651367	960.932983	814.541077	-78.630791	1046.537842	743.137329	-85.832130	
9	0.032000	1003.417969	1420.933350	167.595718	1078.429199	1340.753784	334.301086	1030.853516	1364.872925	-33.360413	1129.238770	1290.396729	134.709564	1049.870117	1133.109863	378.664825	1061.771118	1031.867920	395.976135	1026.072510	1011.619934	301.258240	1015.877136	901.252686	392.214569	1099.249390	811.259033	408.382538	1029.572144	796.424377	389.746277	1119.487793	730.386353	439.133301	1012.280823	1140.308228	-68.782913	1013.241028	1054.612915	-79.451996	953.982422	1036.809814	3.835157	961.132446	914.741394	-83.825798	1032.381104	820.958862	-64.574532	960.924805	814.594788	-78.588974	1046.530029	743.188843	-85.743645	
10	0.036000	1003.395081	1420.905396	167.761200	1078.310913	1340.705811	334.462067	1030.901978	1364.920532	-33.219910	1129.218994	1290.397705	134.875412	1049.710815	1133.084106	378.826843	1061.628662	1031.824097	396.088013	1025.856323	1011.594177	301.402161	1015.679626	901.215881	392.332672	1099.077515	811.193604	408.351868	1029.363525	796.395325	389.895691	1119.392212	730.301147	438.970520	1012.304810	1140.360474	-68.683830	1013.264160	1054.665405	-79.344101	953.957642	1036.852417	3.890621	961.135315	914.800720	-83.775040	1032.375854	821.009094	-64.501251	960.919434	814.649353	-78.541039	1046.520752	743.240845	-85.652657	
11	0.040000	1003.363159	1420.905029	167.905167	1078.192139	1340.654907	334.619934	1030.959473	1364.962524	-33.075497	1129.195312	1290.390503	135.035400	1049.542847	1133.047607	378.969360	1061.483643	1031.772095	396.193970	1025.669189	1011.552795	301.541748	1015.488770	901.182800	392.458527	1098.910645	811.130066	408.323822	1029.156494	796.364197	390.051331	1119.294434	730.213196	438.810028	1012.326965	1140.411011	-68.584282	1013.295044	1054.708496	-79.232765	953.935364	1036.903320	3.937319	961.137573	914.858337	-83.726791	1032.372314	821.061279	-64.428459	960.917358	814.705017	-78.490906	1046.512817	743.284363	-85.562294	
12	0.044000	1003.337524	1420.920166	168.053177	1078.073242	1340.608154	334.782166	1031.013428	1365.003418	-32.933052	1129.167725	1290.380371	135.188049	1049.374512	1132.999512	379.106689	1061.342041	1031.720825	396.307373	1025.498169	1011.513123	301.692780	1015.307434	901.150391	392.585297	1098.743042	811.063538	408.301575	1028.950806	796.335022	390.206665	1119.190308	730.123413	438.665344	1012.348267	1140.462891	-68.487610	1013.311523	1054.755981	-79.140228	953.913757	1036.942993	3.991311	961.139221	914.916504	-83.676086	1032.367920	821.112305	-64.358856	960.907654	814.759155	-78.443245	1046.505493	743.322388	-85.469193	
13	0.048000	1003.313782	1420.927002	168.196167	1077.962280	1340.558350	334.950562	1031.064819	1365.046265	-32.789680	1129.138916	1290.372314	135.344864	1049.212158	1132.965820	379.222992	1061.202271	1031.671753	396.430756	1025.325684	1011.484985	301.837585	1015.126587	901.118164	392.707947	1098.575562	810.995911	408.288483	1028.743042	796.306396	390.361572	1119.077026	730.035522	438.522614	1012.368347	1140.513428	-68.389343	1013.319946	1054.804077	-79.051811	953.891785	1036.987549	4.047836	961.141296	914.969666	-83.627289	1032.359863	821.160461	-64.284317	960.901733	814.816895	-78.394157	1046.496216	743.361450	-85.383675	
14	0.052000	1003.282043	1420.927002	168.327011	1077.858643	1340.508667	335.106537	1031.113770	1365.086060	-32.652660	1129.111816	1290.364746	135.500946	1049.052734	1132.927124	379.328430	1061.051270	1031.618530	396.550415	1025.164307	1011.448853	301.973328	1014.942078	901.088806	392.838989	1098.403931	810.924622	408.280975	1028.530518	796.276917	390.517548	1118.964355	729.942139	438.395294	1012.383728	1140.562988	-68.290733	1013.325195	1054.852783	-78.964561	953.861145	1037.033325	4.107323	961.142883	915.024597	-83.576050	1032.351562	821.206665	-64.210098	960.893372	814.874512	-78.344704	1046.482544	743.403320	-85.300812	
15	0.056000	1003.246216	1420.927856	168.464691	1077.750366	1340.459351	335.256104	1031.155273	1365.125122	-32.515499	1129.092529	1290.354126	135.671295	1048.892822	1132.880615	379.428833	1060.904419	1031.567871	396.671936	1024.983398	1011.412476	302.126465	1014.761475	901.060242	392.981232	1098.223633	810.854004	408.275238	1028.314819	796.247925	390.676697	1118.856323	729.847351	438.285187	1012.397888	1140.614014	-68.189209	1013.330688	1054.903198	-78.879852	953.837219	1037.070801	4.161857	961.142456	915.080750	-83.526337	1032.338135	821.252930	-64.140549	960.884460	814.932556	-78.291519	1046.469482	743.447021	-85.215729	
